<svg width="200" height="200" viewBox="0 0 200 200" xmlns="http://www.w3.org/2000/svg" xmlns:xlink="http://www.w3.org/1999/xlink"><title>9</title><defs><path id="a" d="M.026 4.967h4.221V.263H.027v4.704z"/><path id="c" d="M.392 4.967h4.22V.263H.393v4.704z"/><path id="e" d="M.715 4.967h2.903V.263H.715v4.704z"/><path id="g" d="M.568 4.967H4.79V.263H.568v4.704z"/></defs><g fill="none" fill-rule="evenodd"><path d="M105.923 32c-1.8 0-3.572.109-5.316.315-14.44 1.702-26.791 10.245-33.73 22.31 5.668-8.303 14.918-13.957 25.526-14.712a33.853 33.853 0 0 1 2.434-.088c16.2 0 29.74 11.4 33.07 26.626.56 2.562.923 6.068.761 10.106a46.513 46.513 0 0 1-5.179 19.913c-.072.142-.15.283-.224.425-.132.25-.264.5-.401.748a46.882 46.882 0 0 1-6.832 9.373 46.668 46.668 0 0 1-18.617 12.12 46.782 46.782 0 0 1-4.244 1.248c1.775.524 3.598.942 5.458 1.245 2.375.388 4.81.592 7.294.592 24.87 0 45.032-20.196 45.032-45.11 0-24.914-20.162-45.11-45.032-45.11" fill="#27A9E1"/><path d="M94.837 39.825c-.819 0-1.63.03-2.434.088.044.006.088.015.132.022.08 0 .159-.006.239-.006 18.956 0 34.32 15.393 34.32 34.38 0 18.989-15.364 34.381-34.32 34.381-15.411 0-23.095-8.77-28.645-15.133-11.363 5.796-19.77 21.528-20.367 28.17h38.31c7.797-.174 13.343-.48 18.968-1.641a63.808 63.808 0 0 0 8.517-2.363c46.135-16.465 32.589-77.898-14.72-77.898M45.497 147.744v1.11h-2.679v-1.11c0-.094-.04-.142-.12-.142h-8.9c-.093 0-.14.048-.14.142v2.985c0 .094.047.14.14.14h8.9c.765 0 1.423.273 1.973.819a2.69 2.69 0 0 1 .826 1.986v2.986c0 .78-.276 1.442-.826 1.985a2.707 2.707 0 0 1-1.973.817h-8.9c-.778 0-1.439-.272-1.982-.817A2.704 2.704 0 0 1 31 156.66v-1.11h2.658v1.11c0 .094.047.14.14.14h8.9c.08 0 .12-.046.12-.14v-2.986c0-.094-.04-.142-.12-.142h-8.9c-.778 0-1.439-.271-1.982-.816a2.707 2.707 0 0 1-.816-1.987v-2.985c0-.78.272-1.442.816-1.986a2.695 2.695 0 0 1 1.983-.818h8.899c.765 0 1.423.273 1.973.818.55.544.826 1.206.826 1.986M59.43 156.66v-11.72h2.677v11.72a2.69 2.69 0 0 1-.825 1.985 2.706 2.706 0 0 1-1.974.818h-8.9c-.778 0-1.439-.272-1.982-.818a2.7 2.7 0 0 1-.815-1.986v-11.718h2.657v11.718c0 .094.047.14.14.14h8.9c.08 0 .121-.046.121-.14M67.1 151.818h8.879c.094 0 .141-.047.141-.141v-3.913c0-.094-.047-.141-.141-.141h-8.88c-.093 0-.14.047-.14.141v3.913c0 .094.047.141.14.141m11.7-4.054v3.913c0 .766-.277 1.425-.826 1.977a2.712 2.712 0 0 1-1.994.827h-.785l3.604 4.296v.685h-2.9l-4.187-4.981H66.96v4.981h-2.658v-14.501h11.677c.78 0 1.443.275 1.994.827.55.551.825 1.21.825 1.976M80.973 144.94H94.3v2.663H83.65v3.267h8.576v2.662h-8.576v5.93h-2.678z" fill="#262261"/><path fill="#27A9E1" d="M114.495 144.94h2.819l-5.275 14.523h-2.093l-3.766-10.307-3.765 10.307h-2.073l-5.276-14.523h2.819l3.503 9.58 3.504-9.58h2.597l3.503 9.58zM121.059 151.92h9.16v-4.176c0-.094-.046-.142-.14-.142h-8.88c-.093 0-.14.048-.14.142v4.175zm.14-6.98h8.88a2.73 2.73 0 0 1 1.994.818c.55.544.825 1.206.825 1.986v11.718h-2.678v-4.88h-9.161v4.88h-2.658v-11.718c0-.78.272-1.442.816-1.986a2.693 2.693 0 0 1 1.982-.818zM144.354 156.236l6.484-11.296h3.08l-8.376 14.522h-2.396l-8.376-14.522h3.08zM168.757 144.94v2.663h-10.652v3.267h8.578v2.662h-8.578v3.268h10.652v2.663h-13.33V144.94z"/><path d="M33.775 168.571v-1.853a34.199 34.199 0 0 1-1.572-2.655h.514c.181.381.382.768.602 1.16.219.394.448.768.687 1.123a22.355 22.355 0 0 0 1.29-2.283h.479c-.229.412-.472.84-.727 1.285-.256.444-.532.896-.832 1.355v1.868h-.44z" fill="#BBBDBF"/><g transform="translate(39.263 163.702)"><mask id="b" fill="#fff"><use xlink:href="#a"/></mask><path d="M3.78 2.612c0-.304-.04-.576-.118-.817a1.793 1.793 0 0 0-.33-.614 1.407 1.407 0 0 0-.517-.388A1.657 1.657 0 0 0 2.137.66c-.252 0-.478.044-.68.133-.2.089-.373.218-.516.388a1.793 1.793 0 0 0-.33.614c-.08.24-.118.513-.118.817 0 .303.039.575.117.816.078.24.188.446.331.615.143.17.316.3.516.39.202.092.428.137.68.137.25 0 .476-.045.678-.137a1.45 1.45 0 0 0 .517-.39c.143-.17.252-.375.33-.615a2.63 2.63 0 0 0 .117-.816m.468 0c0 .386-.056.726-.168 1.02a2.12 2.12 0 0 1-.458.74 1.89 1.89 0 0 1-.673.445c-.255.1-.526.15-.811.15-.286 0-.557-.05-.813-.15-.255-.099-.479-.248-.671-.445a2.108 2.108 0 0 1-.458-.74 2.836 2.836 0 0 1-.169-1.02c0-.387.056-.726.169-1.018.112-.293.264-.538.458-.735.192-.198.416-.346.671-.447.256-.099.527-.15.813-.15.285 0 .556.051.811.15.256.1.48.249.673.447.192.197.345.442.458.735.112.292.168.631.168 1.018" fill="#BBBDBF" mask="url(#b)"/></g><path d="M49.369 168.669c-.3 0-.553-.046-.764-.137a1.32 1.32 0 0 1-.51-.377 1.498 1.498 0 0 1-.281-.563 2.621 2.621 0 0 1-.088-.693v-2.836h.441v2.778c0 .247.03.461.088.64.059.18.14.33.244.446.104.117.23.205.376.26.148.056.312.085.494.085s.346-.029.494-.084a.961.961 0 0 0 .376-.26c.104-.118.185-.267.244-.447.058-.179.087-.393.087-.64v-2.778h.442v2.836c0 .248-.03.478-.088.693a1.498 1.498 0 0 1-.282.563c-.13.16-.3.286-.51.377-.21.091-.464.137-.763.137M56.591 164.407c-.164 0-.308.006-.431.017-.124.01-.227.02-.31.03v1.918h.611c.204 0 .397-.01.579-.029.181-.02.34-.063.474-.13a.778.778 0 0 0 .317-.29c.079-.125.118-.297.118-.514 0-.2-.04-.364-.118-.495a.886.886 0 0 0-.305-.308 1.227 1.227 0 0 0-.432-.156 2.934 2.934 0 0 0-.503-.043m1.819 1.01c0 .337-.089.603-.266.8a1.508 1.508 0 0 1-.702.422 12.654 12.654 0 0 1 .955 1.386c.112.192.208.373.285.546h-.474a9.527 9.527 0 0 0-.295-.52 12.851 12.851 0 0 0-.646-.957l-.273-.363a4.673 4.673 0 0 1-.416.019h-.727v1.82h-.442v-4.423c.156-.043.34-.074.549-.094.21-.02.404-.03.58-.03.62 0 1.087.117 1.4.352.315.234.472.58.472 1.041M69.27 168.669c-.29 0-.56-.051-.81-.156a1.846 1.846 0 0 1-.65-.455 2.177 2.177 0 0 1-.435-.74 2.949 2.949 0 0 1-.157-1.004c0-.378.057-.713.171-1.006.114-.292.267-.538.458-.738.19-.2.41-.35.662-.452.251-.102.513-.154.787-.154a2.904 2.904 0 0 1 .825.115c.103.032.192.064.266.097.073.033.13.062.168.088l-.143.384a2.47 2.47 0 0 0-.412-.192 1.768 1.768 0 0 0-.62-.094c-.282 0-.527.047-.737.143-.21.095-.387.23-.53.403-.143.174-.25.38-.321.618a2.745 2.745 0 0 0-.108.794c0 .3.036.57.108.81.07.24.176.446.315.615.139.169.308.299.51.39.201.092.432.137.691.137.286 0 .526-.027.718-.08.193-.055.34-.11.438-.167l.123.377a.776.776 0 0 1-.155.076 3.054 3.054 0 0 1-.67.162 3.863 3.863 0 0 1-.493.029" fill="#BBBDBF"/><g transform="translate(73.97 163.702)"><mask id="d" fill="#fff"><use xlink:href="#c"/></mask><path d="M4.145 2.612c0-.304-.039-.576-.117-.817a1.807 1.807 0 0 0-.33-.614A1.407 1.407 0 0 0 3.18.793 1.657 1.657 0 0 0 2.502.66c-.25 0-.477.044-.679.133-.2.089-.374.218-.516.388a1.807 1.807 0 0 0-.331.614c-.079.24-.117.513-.117.817 0 .303.038.575.117.816.078.24.188.446.33.615.143.17.316.3.517.39.202.092.428.137.68.137.25 0 .476-.045.678-.137a1.45 1.45 0 0 0 .516-.39c.142-.17.253-.375.33-.615a2.63 2.63 0 0 0 .118-.816m.468 0c0 .386-.056.726-.169 1.02a2.12 2.12 0 0 1-.458.74 1.897 1.897 0 0 1-.672.445c-.256.1-.527.15-.812.15-.286 0-.557-.05-.812-.15-.255-.099-.48-.248-.672-.445a2.121 2.121 0 0 1-.458-.74 2.854 2.854 0 0 1-.168-1.02c0-.387.055-.726.168-1.018.113-.293.265-.538.458-.735.193-.198.417-.346.672-.447.255-.099.526-.15.812-.15.285 0 .556.051.812.15.255.1.479.249.672.447.193.197.346.442.458.735.113.292.169.631.169 1.018" fill="#BBBDBF" mask="url(#d)"/></g><path d="M84.844 167.921c-.044-.11-.106-.252-.186-.43s-.17-.372-.27-.582l-.307-.651a37.236 37.236 0 0 0-.718-1.454c-.056.543-.1 1.131-.133 1.767-.033.635-.062 1.302-.088 2h-.435c.039-.82.084-1.604.133-2.355.05-.75.112-1.468.185-2.153h.39c.13.217.269.467.417.75.147.285.293.58.439.885a75.982 75.982 0 0 1 .784 1.709c.104-.238.225-.507.361-.804.137-.297.278-.598.423-.905.145-.305.292-.6.44-.885.147-.283.286-.533.416-.75h.37c.074.685.136 1.403.185 2.153.05.75.095 1.535.133 2.355h-.447a142.69 142.69 0 0 0-.088-2 34.82 34.82 0 0 0-.133-1.767c-.036.06-.09.165-.163.312l-.253.515c-.095.195-.195.404-.299.627a76.7 76.7 0 0 1-.306.65c-.099.211-.189.405-.269.583-.08.178-.141.32-.185.43h-.396zM92.839 164.407c-.165 0-.304.006-.42.017-.114.01-.212.02-.294.03v1.99h.559c.238 0 .452-.015.646-.043a1.43 1.43 0 0 0 .493-.155.791.791 0 0 0 .315-.316c.073-.134.11-.305.11-.514 0-.2-.04-.365-.12-.495a.898.898 0 0 0-.318-.309 1.37 1.37 0 0 0-.451-.159 2.904 2.904 0 0 0-.52-.046m-.02-.383c.637 0 1.11.121 1.423.364.312.243.467.588.467 1.035 0 .255-.046.473-.136.654-.09.18-.22.324-.39.435-.168.111-.375.19-.62.241a4.11 4.11 0 0 1-.827.074h-.611v1.744h-.442v-4.424c.156-.043.339-.074.55-.094.21-.02.404-.03.587-.03M100.006 164.57a47.899 47.899 0 0 0-.954 2.387h1.92a44.618 44.618 0 0 0-.966-2.387zm1.549 4.001a24.367 24.367 0 0 1-.237-.638 54.127 54.127 0 0 1-.207-.598h-2.199c-.075.195-.148.394-.22.599-.072.205-.148.417-.228.637h-.461c.17-.469.332-.906.484-1.312a46.2 46.2 0 0 1 .882-2.193c.145-.334.296-.668.455-1.003h.389c.16.333.31.667.452 1.001.142.335.288.683.434 1.043.147.362.295.746.446 1.152.15.406.317.843.497 1.312h-.487zM108.999 168.571c-.084-.15-.189-.329-.315-.534a20.564 20.564 0 0 0-.42-.653l-.483-.714a38.018 38.018 0 0 0-.501-.717 19.751 19.751 0 0 0-.912-1.18v3.798h-.435v-4.508h.351c.22.247.458.531.71.856.253.323.5.654.743.989.242.336.47.665.679.986.21.32.383.6.517.838v-3.67h.436v4.509h-.37zM114.837 168.571v-1.853a34.199 34.199 0 0 1-1.572-2.655h.514c.181.381.383.768.602 1.16.219.394.448.768.687 1.123a22.984 22.984 0 0 0 1.29-2.283h.48c-.23.412-.472.84-.727 1.285a29.23 29.23 0 0 1-.832 1.355v1.868h-.442z" fill="#BBBDBF"/><g transform="translate(124.377 163.702)"><mask id="f" fill="#fff"><use xlink:href="#e"/></mask><path d="M2.047 4.583c.35 0 .623-.064.818-.192.195-.13.292-.336.292-.623a.824.824 0 0 0-.094-.414.881.881 0 0 0-.25-.28 1.67 1.67 0 0 0-.357-.196c-.134-.053-.275-.11-.422-.171a4.803 4.803 0 0 1-.5-.226 1.705 1.705 0 0 1-.377-.262.993.993 0 0 1-.318-.779c0-.386.127-.678.382-.878.257-.2.611-.3 1.066-.3a2.634 2.634 0 0 1 .964.189c.085.036.155.072.211.111l-.156.371A1.57 1.57 0 0 0 2.85.724 2.075 2.075 0 0 0 1.874.69a.852.852 0 0 0-.308.136.676.676 0 0 0-.205.238.742.742 0 0 0-.074.345c0 .14.025.256.077.351a.765.765 0 0 0 .219.248c.092.07.202.132.327.188.125.057.263.116.41.176.176.074.344.147.502.221.159.074.296.16.413.26.118.1.21.222.28.365.069.142.103.319.103.526 0 .409-.141.715-.425.919-.284.203-.668.305-1.153.305a3.056 3.056 0 0 1-.858-.114 1.93 1.93 0 0 1-.468-.191l.145-.385a2.233 2.233 0 0 0 .772.274c.126.021.264.032.416.032" fill="#BBBDBF" mask="url(#f)"/></g><path fill="#BBBDBF" d="M134.62 168.188v.383h-2.559v-4.508h.442v4.125z"/><g transform="translate(137.599 163.702)"><mask id="h" fill="#fff"><use xlink:href="#g"/></mask><path d="M4.322 2.612c0-.304-.039-.576-.117-.817a1.794 1.794 0 0 0-.331-.614 1.407 1.407 0 0 0-.517-.388C3.157.703 2.93.66 2.678.66c-.25 0-.477.044-.678.133a1.397 1.397 0 0 0-.516.388 1.78 1.78 0 0 0-.331.614c-.079.24-.118.513-.118.817 0 .303.04.575.118.816.077.24.187.446.331.615.142.17.314.3.516.39.201.092.428.137.678.137.251 0 .479-.045.68-.137a1.45 1.45 0 0 0 .516-.39c.143-.17.254-.375.331-.615.078-.24.117-.513.117-.816m.468 0c0 .386-.057.726-.17 1.02a2.11 2.11 0 0 1-.458.74 1.88 1.88 0 0 1-.672.445c-.255.1-.526.15-.812.15a2.22 2.22 0 0 1-.811-.15c-.256-.099-.48-.248-.672-.445a2.096 2.096 0 0 1-.458-.74 2.835 2.835 0 0 1-.17-1.02c0-.387.057-.726.17-1.018a2.1 2.1 0 0 1 .458-.735c.192-.198.416-.346.672-.447.255-.099.526-.15.811-.15.286 0 .557.051.812.15.256.1.48.249.672.447.194.197.347.442.459.735.112.292.169.631.169 1.018" fill="#BBBDBF" mask="url(#h)"/></g><path d="M149.429 166.438h.442v2.01a3.664 3.664 0 0 1-.484.133 4.13 4.13 0 0 1-.887.082 2.11 2.11 0 0 1-.818-.157 1.844 1.844 0 0 1-.653-.452 2.07 2.07 0 0 1-.432-.736 2.986 2.986 0 0 1-.156-1.004c0-.377.057-.713.169-1.005.112-.294.265-.539.458-.736a1.97 1.97 0 0 1 .672-.452c.256-.104.529-.156.819-.156.333 0 .608.036.824.108.217.07.375.14.475.205l-.15.377a1.493 1.493 0 0 0-.493-.212 2.654 2.654 0 0 0-.676-.081c-.225 0-.437.04-.637.124-.199.082-.371.206-.52.37a1.783 1.783 0 0 0-.346.611 2.564 2.564 0 0 0-.127.847c0 .3.035.569.103.81.07.24.175.446.316.617.14.172.315.303.522.395.208.09.45.136.721.136.221 0 .407-.012.556-.035a1.59 1.59 0 0 0 .302-.07v-1.73zM155.628 164.57a42.071 42.071 0 0 0-.955 2.388h1.921a44.619 44.619 0 0 0-.966-2.388zm1.55 4.001a21.809 21.809 0 0 1-.239-.638l-.206-.598h-2.2c-.074.195-.147.394-.219.599-.073.205-.148.417-.228.637h-.462c.172-.469.333-.906.485-1.312a49.781 49.781 0 0 1 .883-2.193c.143-.334.296-.668.454-1.003h.389c.159.333.31.667.452 1.001a45.237 45.237 0 0 1 .88 2.195c.15.406.317.843.497 1.312h-.487zM164.62 168.571c-.083-.15-.188-.329-.315-.534a20.565 20.565 0 0 0-.42-.653c-.154-.23-.315-.468-.483-.714a38.015 38.015 0 0 0-.5-.717 19.752 19.752 0 0 0-.913-1.18v3.798h-.435v-4.508h.352c.22.247.457.531.71.856.251.323.5.654.742.989.242.336.47.665.68.986.21.32.382.6.517.838v-3.67h.435v4.509h-.37z" fill="#BBBDBF"/></g></svg>
