<svg width="200" height="200" viewBox="0 0 200 200" xmlns="http://www.w3.org/2000/svg" xmlns:xlink="http://www.w3.org/1999/xlink"><title>10</title><defs><path id="a" d="M.88 25h14.81V.773H.88V25z"/><path id="c" d="M14.024 18.01V.774H.226V18.01h13.798z"/></defs><g fill="none" fill-rule="evenodd"><path d="M108.05 64.293H92.095l-7.98 13.819 7.98 13.819h15.957l7.978-13.82-7.978-13.818zm-3.02 5.232l4.957 8.587-4.957 8.587h-9.916l-4.957-8.587 4.957-8.587h9.916z" fill="#00532E"/><path fill="#4CBCDF" d="M152.957 79.662l-25.172 43.6-25.172-43.6z"/><path fill="#158098" d="M127.785 123.254V90.434l25.17-10.773z"/><path fill="#259DB9" d="M152.955 79.662l-25.17 10.773-25.16-10.764z"/><path fill="#D21F26" d="M86.918 123.438l12.588-21.802 12.587 21.802z"/><path fill="#EF4731" d="M99.506 101.64v16.412l-12.587 5.386z"/><path fill="#93191C" d="M86.919 123.438l12.587-5.386 12.58 5.386z"/><path fill="#FCC817" d="M150.2 66.592h-25.172l12.256-21.61z"/><path fill="#FDDC43" d="M125.032 66.59l14.087-8.04 11.08 8.04z"/><path fill="#EAAB20" d="M150.198 66.59l-11.079-8.04-1.83-13.564z"/><path fill="#2C317F" d="M52.09 64.54h25.174L65.007 42.933z"/><path fill="#272A64" d="M77.26 64.54l-14.087-8.041-11.08 8.04z"/><path fill="#3C4A9F" d="M52.093 64.54l11.08-8.041 1.83-13.563z"/><path fill="#4CBCDF" d="M46.152 79.662l25.172 43.6 25.172-43.6z"/><path fill="#158098" d="M71.324 123.254V90.434l-25.17-10.773z"/><path fill="#259DB9" d="M46.154 79.662l25.17 10.773 25.16-10.764z"/><path fill="#4CBCDF" d="M74.807 32L99.98 75.6 125.152 32z"/><path fill="#158098" d="M125.15 32L99.98 42.772v32.82z"/><path fill="#259DB9" d="M125.15 32l-50.331.01L99.98 42.771z"/><path fill="#118C4C" d="M95.064 86.699l-2.97 5.232h15.957l-3.022-5.232zM84.115 78.111h6.042l4.957-8.587-3.02-5.232zM108.07 64.264l-3.027 5.305 4.94 8.526h6.057z"/><path d="M37.46 145.523c-3.15 0-4.89 2.028-5.105 5.25h9.74c0-2.607-.905-5.25-4.634-5.25m0-2.101c5.794 0 6.917 4.6 6.917 7.062 0 1.05 0 2.318-1.45 2.318H32.356c0 3.585 2.064 5.903 5.468 5.903 2.1 0 3.33-.797 4.345-1.557.218-.146.362-.218.652-.218.579 0 1.05.47 1.05 1.05 0 .398-.18.616-.397.834-.544.542-2.427 2.027-5.65 2.027-4.816 0-7.823-2.643-7.823-8.728 0-5.576 2.753-8.691 7.46-8.691" fill="#191819"/><path d="M53.066 153.779l-4.526 6.41c-.217.326-.616.47-.942.47a1.144 1.144 0 0 1-1.159-1.158c0-.254.072-.507.218-.688l4.961-6.845-4.817-6.482c-.108-.181-.217-.362-.217-.688 0-.652.507-1.16 1.16-1.16.397 0 .723.183.941.472l4.381 6.012 4.382-6.012c.218-.29.544-.471.942-.471.652 0 1.158.507 1.158 1.159 0 .326-.108.507-.216.688l-4.817 6.482 4.961 6.845c.146.18.218.434.218.688 0 .652-.507 1.159-1.159 1.159-.326 0-.725-.145-.942-.471l-4.527-6.41z" fill="#272A64"/><g transform="translate(62 142.649)"><mask id="b" fill="#fff"><use xlink:href="#a"/></mask><path d="M8.121 16.091c3.332 0 5.215-2.1 5.215-6.627 0-4.527-1.955-6.59-5.287-6.59-2.68 0-4.925 1.882-4.925 6.59 0 4.671 2.173 6.627 4.997 6.627M3.196 2.15v1.158c.688-1.23 2.5-2.534 4.925-2.534 4.708 0 7.57 2.752 7.57 8.691 0 5.94-2.862 8.728-7.57 8.728-2.426 0-4.164-1.304-4.925-2.536v8.185c0 .616-.543 1.16-1.159 1.16-.615 0-1.158-.544-1.158-1.16V2.15C.88 1.497 1.422.99 2.037.99c.616 0 1.16.507 1.16 1.16" fill="#191819" mask="url(#b)"/></g><path d="M93.08 152.113c0-4.562-1.92-6.59-5.252-6.59s-5.25 2.028-5.25 6.59c0 4.636 1.918 6.627 5.25 6.627 3.331 0 5.251-1.991 5.251-6.627m2.354 0c0 5.939-2.897 8.728-7.605 8.728-4.67 0-7.604-2.79-7.604-8.728 0-5.94 2.933-8.691 7.604-8.691 4.708 0 7.605 2.752 7.605 8.69" fill="#D21F26"/><path d="M100.972 147.84c0 3.803 9.524 2.39 9.524 8.185 0 3.295-2.715 4.779-6.157 4.779-2.97 0-5.25-1.412-6.191-2.607-.182-.253-.254-.434-.254-.688 0-.58.47-1.05 1.05-1.05.217 0 .507.072.797.362 1.123 1.123 2.57 1.774 4.598 1.774 2.065 0 3.84-.688 3.84-2.57 0-3.731-9.524-2.246-9.524-8.185 0-3.006 2.462-4.382 5.54-4.382 2.463 0 4.382.833 5.505 2.318.108.145.253.362.253.688a1.05 1.05 0 0 1-1.81.724c-.98-.942-2.065-1.521-3.948-1.521-1.63 0-3.223.507-3.223 2.173" fill="#191819"/><path d="M116.686 159.501c0 .651-.507 1.16-1.158 1.16a1.144 1.144 0 0 1-1.159-1.16v-14.703c0-.652.507-1.159 1.16-1.159.65 0 1.157.507 1.157 1.16V159.5zm-2.534-20.642c0-1.05.507-1.449 1.376-1.449.87 0 1.376.4 1.376 1.45 0 .868-.507 1.375-1.376 1.375-.869 0-1.376-.507-1.376-1.376z" fill="#118C4C"/><path d="M122.299 140.126c0-.615.543-1.159 1.159-1.159.652 0 1.158.544 1.158 1.16v3.802h2.355c.615 0 1.086.47 1.086 1.086 0 .616-.471 1.087-1.086 1.087h-2.355v9.995c0 1.557.87 2.39 2.1 2.39.617 0 1.124.471 1.124 1.086 0 .616-.507 1.087-1.123 1.087-2.86 0-4.418-1.92-4.418-4.563v-9.995h-1.412a1.068 1.068 0 0 1-1.087-1.087c0-.616.47-1.086 1.087-1.086h1.412v-3.803z" fill="#191819"/><path d="M133.777 159.501c0 .651-.507 1.16-1.159 1.16a1.144 1.144 0 0 1-1.158-1.16v-14.703c0-.652.506-1.159 1.158-1.159.652 0 1.16.507 1.16 1.16V159.5zm-2.535-20.642c0-1.05.507-1.449 1.376-1.449.87 0 1.376.4 1.376 1.45 0 .868-.507 1.375-1.376 1.375-.869 0-1.376-.507-1.376-1.376z" fill="#EAAB20"/><path d="M150.253 152.113c0-4.562-1.92-6.59-5.25-6.59-3.332 0-5.252 2.028-5.252 6.59 0 4.636 1.92 6.627 5.252 6.627 3.33 0 5.25-1.991 5.25-6.627m2.354 0c0 5.939-2.897 8.728-7.604 8.728-4.672 0-7.605-2.79-7.605-8.728 0-5.94 2.933-8.691 7.605-8.691 4.707 0 7.604 2.752 7.604 8.69" fill="#191819"/><g transform="translate(156 142.649)"><mask id="d" fill="#fff"><use xlink:href="#c"/></mask><path d="M14.024 7.183v9.669c0 .652-.508 1.159-1.159 1.159a1.143 1.143 0 0 1-1.158-1.16V7.655c0-2.861-.833-4.817-4.347-4.817-3.584 0-4.815 2.173-4.815 5.07v8.945c0 .652-.508 1.159-1.16 1.159a1.144 1.144 0 0 1-1.159-1.16V2.15C.226 1.497.733.99 1.386.99c.651 0 1.16.506 1.16 1.158v1.159C3.231 1.932 5.005.773 7.36.773c5.577 0 6.664 3.332 6.664 6.41" fill="#259DB9" mask="url(#d)"/></g></g></svg>
